<svg width="200" height="220" viewBox="0 0 200 220" xmlns="http://www.w3.org/2000/svg" role="img" aria-labelledby="logoOption5Title">
  <title id="logoOption5Title">ReturnShield Signal Shield – Core Lockup</title>
  <defs>
    <linearGradient id="shieldGradientOption5" x1="15%" y1="0%" x2="85%" y2="100%">
      <stop offset="0%" stop-color="#2D1B69"/>
      <stop offset="55%" stop-color="#0066FF"/>
      <stop offset="100%" stop-color="#3399FF"/>
    </linearGradient>
    <linearGradient id="innerHighlight" x1="0%" y1="0%" x2="0%" y2="100%">
      <stop offset="0%" stop-color="rgba(255,255,255,0.55)"/>
      <stop offset="100%" stop-color="rgba(255,255,255,0)"/>
    </linearGradient>
  </defs>
  <path d="M100 206c-48-21-78-55-78-115V46L100 10l78 36v45c0 60-30 94-78 115Z" fill="url(#shieldGradientOption5)"/>
  <path d="M100 30 42 58v32c0 52 24 80 58 96" fill="url(#innerHighlight)" opacity="0.4"/>
  <g fill="none" stroke="#FFFFFF" stroke-width="9">
    <circle cx="100" cy="120" r="44"/>
    <circle cx="100" cy="120" r="64"/>
  </g>
  <circle cx="100" cy="120" r="20" fill="#FFFFFF" stroke="#000000" stroke-width="3"/>
  <path d="m100 100 28-28" stroke="#12B76A" stroke-width="9" stroke-linecap="round"/>
  <path d="m86 120 14 14 36-40" fill="none" stroke="#12B76A" stroke-width="8" stroke-linecap="round" stroke-linejoin="round"/>
</svg>

