<svg width="720" height="300" viewBox="0 0 720 300" fill="none" xmlns="http://www.w3.org/2000/svg" role="img" aria-labelledby="rsTitle rsDesc">
  <title id="rsTitle">ReturnShield logo</title>
  <desc id="rsDesc">Shield emblem with stylized R and the word ReturnShield</desc>

  <style>
    :root{
      --rs-blue:#1563AD;
      --rs-navy:#110B3B;
      --rs-white:#FFFFFF;
    }
    .rs-blue { fill: var(--rs-blue); }
    .rs-navy { fill: var(--rs-navy); }
    .rs-white { fill: var(--rs-white); }
  </style>

  <g transform="translate(80,12)">
    <path class="rs-blue" d="M140 0 C112 16, 76 24, 40 28 C36 132, 84 186, 140 216 C196 186, 244 132, 240 28 C204 24, 168 16, 140 0Z" />
    <path class="rs-white" d="M202 110 C206 81, 183 58, 148 58 C120 58, 95 72, 78 97 C73 104, 66 118, 66 118 C66 118, 86 86, 120 78 C162 68, 196 94, 191 124 C182 126, 171 127, 160 127 C126 127, 100 119, 85 110 C97 139, 131 157, 173 157 C185 157, 196 156, 206 154 C208 139, 205 124, 202 110Z" />
    <path class="rs-navy" d="M81 138 C90 170, 118 194, 156 205 C170 201, 183 193, 194 183 C175 184, 156 181, 139 174 C119 166, 101 153, 90 139 C87 138, 84 138, 81 138Z" />
  </g>

  <g transform="translate(330,225)">
    <text x="0"  y="0"  font-family="Poppins, Inter, system-ui, -apple-system, Segoe UI, Roboto, Arial, sans-serif"
          font-weight="700" font-size="72" class="rs-navy" letter-spacing="0.2">
      Return
    </text>
    <text x="282" y="0"  font-family="Poppins, Inter, system-ui, -apple-system, Segoe UI, Roboto, Arial, sans-serif"
          font-weight="700" font-size="72" class="rs-blue" letter-spacing="0.2">
      Shield
    </text>
  </g>
</svg>

