<svg width="200" height="220" viewBox="0 0 200 220" xmlns="http://www.w3.org/2000/svg" role="img" aria-labelledby="logoOption5VariantATitle">
  <title id="logoOption5VariantATitle">ReturnShield Signal Shield – Variant A</title>
  <defs>
    <linearGradient id="variantAGradient" x1="10%" y1="0%" x2="90%" y2="100%">
      <stop offset="0%" stop-color="#2D1B69"/>
      <stop offset="45%" stop-color="#0066FF"/>
      <stop offset="100%" stop-color="#53B1FF"/>
    </linearGradient>
    <linearGradient id="variantAHalo" x1="0%" y1="0%" x2="0%" y2="100%">
      <stop offset="0%" stop-color="rgba(255,255,255,0.65)"/>
      <stop offset="100%" stop-color="rgba(255,255,255,0)"/>
    </linearGradient>
  </defs>
  <path d="M100 206c-48-21-78-55-78-115V44L100 10l78 34v47c0 60-30 94-78 115Z" fill="url(#variantAGradient)"/>
  <path d="M100 28 42 56v36c0 50 24 78 58 94" fill="url(#variantAHalo)" opacity="0.35"/>
  <g fill="none" stroke="#FFFFFF" stroke-width="8">
    <circle cx="100" cy="120" r="36"/>
    <circle cx="100" cy="120" r="52"/>
    <circle cx="100" cy="120" r="68"/>
  </g>
  <path d="M74 130c12 18 26 28 42 28 18 0 28-12 28-24 0-8-4-14-10-18l20-22" fill="none" stroke="#12B76A" stroke-width="9" stroke-linecap="round" stroke-linejoin="round"/>
  <circle cx="100" cy="106" r="16" fill="#FFFFFF" stroke="#000000" stroke-width="3"/>
  <path d="m100 90 26-24" stroke="#12B76A" stroke-width="9" stroke-linecap="round"/>
  <path d="m128 72 14 6-6 14" fill="none" stroke="#12B76A" stroke-width="9" stroke-linecap="round" stroke-linejoin="round"/>
</svg>

