<svg width="200" height="220" viewBox="0 0 200 220" xmlns="http://www.w3.org/2000/svg" role="img" aria-labelledby="logoOption5VariantCTitle">
  <title id="logoOption5VariantCTitle">ReturnShield Signal Shield – Variant C</title>
  <defs>
    <linearGradient id="variantCGradient" x1="12%" y1="0%" x2="88%" y2="100%">
      <stop offset="0%" stop-color="#0066FF"/>
      <stop offset="100%" stop-color="#2D1B69"/>
    </linearGradient>
    <radialGradient id="variantCGlow" cx="50%" cy="40%" r="60%">
      <stop offset="0%" stop-color="rgba(255,255,255,0.6)"/>
      <stop offset="100%" stop-color="rgba(255,255,255,0)"/>
    </radialGradient>
  </defs>
  <path d="M100 206c-48-21-78-55-78-115V42L100 10l78 32v49c0 60-30 94-78 115Z" fill="url(#variantCGradient)"/>
  <ellipse cx="100" cy="118" rx="70" ry="78" fill="url(#variantCGlow)" opacity="0.35"/>
  <g fill="none" stroke="#FFFFFF" stroke-width="8">
    <circle cx="100" cy="114" r="44"/>
    <circle cx="100" cy="114" r="58"/>
    <circle cx="100" cy="114" r="72"/>
  </g>
  <circle cx="100" cy="114" r="20" fill="#FFFFFF" stroke="#000000" stroke-width="3"/>
  <path d="m100 94 28-28" stroke="#12B76A" stroke-width="10" stroke-linecap="round"/>
  <path d="m84 118 16 18 36-44" fill="none" stroke="#12B76A" stroke-width="9" stroke-linecap="round" stroke-linejoin="round"/>
  <path d="M140 60c0 10-8 18-18 18" fill="none" stroke="#53B1FF" stroke-width="6" stroke-linecap="round" stroke-linejoin="round"/>
</svg>

